<svg width="100" height="100" viewBox="0 0 100 100" fill="none" xmlns="http://www.w3.org/2000/svg">
<path d="M34.7871 49.4948C34.7871 51.6021 35.202 53.6577 36.0196 55.5955C36.7905 57.4375 37.9518 59.1715 39.3905 60.6107C40.8292 62.05 42.5601 63.2141 44.399 63.978C46.341 64.7983 48.396 65.2109 50.5025 65.2109C51.5876 65.2109 52.4666 64.3316 52.4666 63.246C52.4666 62.1605 51.5876 61.2812 50.5025 61.2812C48.9214 61.2812 47.382 60.9693 45.9162 60.3528C44.5414 59.7781 43.245 58.9062 42.1697 57.8305C41.0944 56.7548 40.2203 55.458 39.6459 54.0752C39.0321 52.6164 38.7178 51.074 38.7178 49.4923C38.7178 48.1022 38.9731 46.744 39.4543 45.43C39.8521 45.5135 40.2596 45.5627 40.6819 45.5627C43.9301 45.5627 46.5742 42.9175 46.5742 39.6682C46.5742 36.4189 43.9301 33.7738 40.6819 33.7738C37.4337 33.7738 34.7896 36.4189 34.7896 39.6682C34.7896 41.0387 35.2806 42.2864 36.0687 43.2908C36.054 43.3228 36.0343 43.3547 36.0245 43.3842C35.2045 45.3294 34.7921 47.385 34.7921 49.4898L34.7871 49.4948ZM40.6794 37.7059C41.7646 37.7059 42.6436 38.5876 42.6436 39.6707C42.6436 40.7538 41.7646 41.6355 40.6794 41.6355C39.5943 41.6355 38.7153 40.7538 38.7153 39.6707C38.7153 38.5876 39.5943 37.7059 40.6794 37.7059ZM66.2129 49.4948C66.2129 47.3875 65.798 45.3318 64.9804 43.394C64.2095 41.552 63.0482 39.8181 61.6095 38.3788C60.1708 36.9396 58.4399 35.7755 56.601 35.0116C54.659 34.1913 52.604 33.7787 50.4975 33.7787C49.4124 33.7787 48.5334 34.6579 48.5334 35.7435C48.5334 36.8291 49.4124 37.7083 50.4975 37.7083C52.0786 37.7083 53.618 38.0203 55.0838 38.6367C56.4586 39.2114 57.755 40.0833 58.8303 41.1591C59.9056 42.2348 60.7797 43.5315 61.3541 44.9143C61.9679 46.3732 62.2822 47.9156 62.2822 49.4973C62.2822 50.8874 62.0269 52.2456 61.5457 53.5595C61.1479 53.476 60.7404 53.4269 60.3181 53.4269C57.0699 53.4269 54.4258 56.072 54.4258 59.3213C54.4258 62.5707 57.0699 65.2158 60.3181 65.2158C63.5663 65.2158 66.2104 62.5707 66.2104 59.3213C66.2104 57.9509 65.7194 56.7032 64.9313 55.6987C64.946 55.6668 64.9657 55.6349 64.9755 55.6054C65.7955 53.6602 66.2079 51.6045 66.2079 49.4998L66.2129 49.4948ZM60.3206 61.2837C59.2354 61.2837 58.3564 60.402 58.3564 59.3189C58.3564 58.2357 59.2354 57.354 60.3206 57.354C61.4057 57.354 62.2847 58.2357 62.2847 59.3189C62.2847 60.402 61.4057 61.2837 60.3206 61.2837ZM24.9666 51.4596C26.0518 51.4596 26.9307 50.5804 26.9307 49.4948C26.9307 46.3069 27.5543 43.2221 28.7818 40.3189C29.9701 37.5092 31.6716 34.9893 33.8345 32.8231C36 30.6569 38.5189 28.9573 41.3252 27.7686C47.1365 25.3101 53.8609 25.3101 59.6747 27.7686C62.4416 28.9401 64.9238 30.6126 67.0673 32.7322C66.537 33.6163 66.2153 34.638 66.2153 35.7433C66.2153 38.9926 68.8595 41.6377 72.1077 41.6377C75.3558 41.6377 78 38.9926 78 35.7433C78 32.4939 75.3558 29.8488 72.1077 29.8488C71.3883 29.8488 70.7082 29.9962 70.0699 30.2344C70.0233 30.1755 70.0011 30.1018 69.9471 30.0478C67.4257 27.523 64.4845 25.5409 61.2095 24.1533C54.4234 21.2822 46.5865 21.2822 39.801 24.1533C36.5259 25.5409 33.5846 27.523 31.0634 30.0478C28.5395 32.5701 26.5582 35.5124 25.1711 38.791C23.7373 42.1828 23.0081 45.7833 23.0081 49.4991C23.0081 50.5847 23.887 51.4639 24.9722 51.4639L24.9666 51.4596ZM72.1052 33.7763C73.1904 33.7763 74.0693 34.6579 74.0693 35.7411C74.0693 36.8242 73.1904 37.7059 72.1052 37.7059C71.02 37.7059 70.1411 36.8242 70.1411 35.7411C70.1411 34.6579 71.02 33.7763 72.1052 33.7763ZM76.0334 47.53C74.9482 47.53 74.0693 48.4092 74.0693 49.4948C74.0693 52.6827 73.4457 55.7675 72.2182 58.6706C71.0299 61.4803 69.3284 64.0002 67.1655 66.1665C65 68.3327 62.4811 70.0322 59.6748 71.221C53.8635 73.6795 47.1391 73.6795 41.3253 71.221C38.5584 70.0495 36.0762 68.3769 33.9327 66.2574C34.463 65.3733 34.7847 64.3516 34.7847 63.2463C34.7847 59.997 32.1405 57.3518 28.8923 57.3518C25.6442 57.3518 23 59.997 23 63.2463C23 66.4956 25.6442 69.1407 28.8923 69.1407C29.6117 69.1407 30.2918 68.9934 30.9301 68.7551C30.9768 68.8141 30.9989 68.8878 31.0529 68.9418C33.5743 71.4666 36.5155 73.4486 39.7905 74.8362C43.1835 76.2705 46.7852 77 50.4947 77C54.2044 77 57.8062 76.273 61.199 74.8362C64.4741 73.4486 67.4154 71.4666 69.9366 68.9418C72.4605 66.4195 74.4418 63.4772 75.8289 60.1985C77.2627 56.8068 77.9919 53.2063 77.9919 49.4904C77.9919 48.4049 77.113 47.5256 76.0278 47.5256L76.0334 47.53ZM28.8948 65.2133C27.8096 65.2133 26.9307 64.3316 26.9307 63.2485C26.9307 62.1654 27.8096 61.2837 28.8948 61.2837C29.98 61.2837 30.8589 62.1654 30.8589 63.2485C30.8589 64.3316 29.98 65.2133 28.8948 65.2133Z" fill="black"/>
</svg>
