<svg width="100" height="100" viewBox="0 0 100 100" fill="none" xmlns="http://www.w3.org/2000/svg">
<path d="M79.2002 73.6523C80.738 73.6504 82.2122 73.0387 83.2995 71.9512C84.3868 70.8637 84.9984 69.3893 85 67.8516V43.7822C84.9983 42.2445 84.3868 40.7703 83.2994 39.683C82.2121 38.5957 80.7379 37.9841 79.2002 37.9824H79V32.0752C78.998 30.4644 78.3572 28.9201 77.2181 27.7812C76.079 26.6423 74.5346 26.0017 72.9238 26H25.6738C24.063 26.0017 22.5187 26.6423 21.3796 27.7812C20.2404 28.9201 19.5996 30.4644 19.5977 32.0752V64.1016H18.5879C17.6368 64.1025 16.7249 64.4807 16.0523 65.1532C15.3796 65.8256 15.0012 66.7374 15 67.6885C15.0019 69.2696 15.6309 70.7854 16.7489 71.9035C17.8669 73.0215 19.3827 73.6505 20.9639 73.6524L79.2002 73.6523ZM82 43.7822V67.8516C81.9992 68.594 81.7041 69.3058 81.1792 69.8308C80.6543 70.3559 79.9426 70.6513 79.2002 70.6523H70.2549C69.5125 70.6513 68.8008 70.3559 68.2759 69.8308C67.751 69.3058 67.4559 68.594 67.4551 67.8516V43.7822C67.4559 43.0399 67.7511 42.3282 68.276 41.8033C68.8009 41.2785 69.5126 40.9832 70.2549 40.9824H79.2002C79.9425 40.9832 80.6542 41.2785 81.1791 41.8033C81.704 42.3282 81.9992 43.0399 82 43.7822ZM22.5977 32.0752C22.5988 31.2598 22.9232 30.4781 23.4999 29.9016C24.0766 29.3251 24.8584 29.0009 25.6738 29H72.9238C73.7392 29.0009 74.521 29.3251 75.0977 29.9016C75.6744 30.4781 75.9989 31.2598 76 32.0752V37.9824H70.2549C68.7172 37.9841 67.243 38.5957 66.1556 39.683C65.0683 40.7703 64.4568 42.2445 64.4551 43.7822V64.1016H22.5977L22.5977 32.0752ZM18 67.6885C18.0004 67.5328 18.0624 67.3836 18.1726 67.2736C18.2828 67.1635 18.4322 67.1017 18.5879 67.1016H64.4551V67.8516C64.4544 68.8316 64.7037 69.7955 65.1793 70.6524H20.9639C20.1781 70.6515 19.4247 70.3389 18.8691 69.7833C18.3134 69.2277 18.0009 68.4743 18 67.6885Z" fill="black"/>
</svg>
