<svg width="100" height="100" viewBox="0 0 100 100" fill="none" xmlns="http://www.w3.org/2000/svg">
<path d="M20.1643 48.7832C20.1643 49.4346 19.6297 49.9632 18.9708 49.9632C18.3118 49.9632 17.7772 49.4346 17.7772 48.7832V48.5865C17.7772 47.9351 18.3118 47.4065 18.9708 47.4065C19.6297 47.4065 20.1643 47.9351 20.1643 48.5865V48.7832ZM55.2222 36.3014L47.5978 50.9221L44.7755 49.484L52.3999 34.8633L55.2222 36.3014ZM42.8052 38.5292L35.6532 42.8926L42.8052 47.2561L41.1392 49.9234L31.8207 44.2385C31.6063 44.1125 31.4198 43.9374 31.283 43.7131C30.823 42.9756 31.0561 42.0107 31.799 41.5559L41.1389 35.8588L42.805 38.526L42.8052 38.5292ZM58.853 35.8619L68.1929 41.559C68.9389 42.0138 69.1689 42.9787 68.7089 43.7162C68.569 43.9405 68.3825 44.1157 68.1712 44.2417L58.8527 49.9265L57.1867 47.2593L64.3387 42.8958L57.1867 38.5323L58.8527 35.865L58.853 35.8619ZM66.4681 26.0413C67.127 26.0413 67.6616 26.5699 67.6616 27.2213C67.6616 27.8728 67.127 28.4013 66.4681 28.4013H24.5194V57.3848H75.4723V28.4013H71.2265C70.5675 28.4013 70.0329 27.8728 70.0329 27.2213C70.0329 26.5699 70.5675 26.0413 71.2265 26.0413H76.6658C77.3247 26.0413 77.8594 26.5699 77.8594 27.2213V58.5648C77.8594 59.2162 77.3247 59.7447 76.6658 59.7447H23.3259C22.6669 59.7447 22.1323 59.2162 22.1323 58.5648V27.2213C22.1323 26.5699 22.6669 26.0413 23.3259 26.0413H66.4681ZM51.1882 74.5401V75.6371H63.3322L62.9872 74.5401H51.1882ZM48.8011 75.6371V74.5401H37.0056L36.6606 75.6371H48.8011ZM34.9384 73.1911C34.957 73.0651 34.9943 72.9453 35.0503 72.8346L36.3091 68.8276C36.4645 68.3236 36.9369 67.9979 37.4467 67.9979L62.5455 67.9948C63.1143 67.9948 63.593 68.3912 63.7111 68.9167L65.8246 75.6371H82.2949C82.7176 75.6371 83.1186 75.5357 83.4667 75.3636C83.8242 75.1854 84.1225 74.9365 84.3245 74.6507C84.5048 74.3926 84.6105 74.1068 84.6105 73.8149C84.6105 73.6151 84.5608 73.4093 84.4551 73.2034L80.2901 65.0694H19.6989L15.5339 73.2034C15.4313 73.4031 15.3847 73.609 15.3847 73.8026C15.3847 74.0976 15.4904 74.3864 15.6738 74.6445C15.8789 74.9334 16.1804 75.1854 16.5378 75.3667C16.8828 75.5388 17.2807 75.6402 17.6971 75.6402H34.1674L34.9351 73.1941L34.9384 73.1911ZM37.7482 72.1801H62.2439L61.6688 70.3548H38.3197L37.7447 72.1801H37.7482ZM82.2948 77.997H17.6996C16.9039 77.997 16.1362 77.8003 15.4648 77.4654C14.7624 77.112 14.1563 76.5988 13.7242 75.9873C13.2673 75.342 13 74.5892 13 73.8026C13 73.2556 13.1305 72.6932 13.4103 72.1401L17.7773 63.6128V53.4878C17.7773 52.8363 18.312 52.3078 18.9709 52.3078C19.6298 52.3078 20.1644 52.8363 20.1644 53.4878V62.7097H79.8294V27.3284C79.8294 26.5141 79.4906 25.7735 78.9467 25.2327C78.4058 24.6949 77.6567 24.36 76.8299 24.36H23.1669C22.3432 24.36 21.5942 24.6949 21.0471 25.2327C20.5032 25.7704 20.1644 26.511 20.1644 27.3284V43.882C20.1644 44.5334 19.6297 45.0619 18.9708 45.0619C18.3119 45.0619 17.7773 44.5334 17.7773 43.882V27.3284C17.7773 25.8626 18.3834 24.529 19.3594 23.5641C20.3354 22.5992 21.6843 22 23.1669 22H76.8299C78.3095 22 79.6584 22.6023 80.6312 23.5672C81.6104 24.529 82.2164 25.8626 82.2164 27.3283V63.6127L86.5835 72.1401C86.8695 72.6962 87 73.2647 87 73.8148C87 74.6076 86.7327 75.3573 86.2758 75.9995C85.8437 76.6049 85.2407 77.115 84.5414 77.4653C83.8669 77.8003 83.0961 78 82.2973 78L82.2948 77.997Z" fill="black"/>
</svg>
