<svg width="100" height="100" viewBox="0 0 100 100" fill="none" xmlns="http://www.w3.org/2000/svg">
<path d="M65.2674 44.6614L79 52.5836V70.1902L63.7307 79L50 71.076L36.2693 79L21 70.1902V52.5836L34.7326 44.6614V28.8098L35.5009 28.366L50 20L65.2674 28.8098V44.6614ZM53.0605 53.4602L62.1959 58.7324V48.1898L53.0605 53.4602ZM65.2674 58.7324L74.4047 53.4602L65.2674 48.1879V58.7324ZM75.9285 56.1156L65.2674 62.2681V74.5804L75.9285 68.4279V56.1156ZM62.1959 62.2681L51.5367 56.1156V68.4279L62.1959 74.5804V62.2681ZM25.5972 53.4602L34.7344 58.7324V48.1879L25.5972 53.4602ZM37.806 58.7324L46.9414 53.4602L37.806 48.1898V58.7324ZM48.4652 56.1156L37.806 62.2681V74.5804L48.4652 68.4279V56.1156ZM34.7344 62.2681L24.0734 56.1156V68.4279L34.7344 74.5804V62.2662V62.2681ZM39.3334 29.6918L50.0018 35.848L60.6702 29.6918L50.0018 23.5357L39.3334 29.6918ZM62.1977 32.3455L51.5385 38.4979V50.8139L62.1977 44.6633V32.3455ZM48.467 38.4979L37.8078 32.3455V44.6633L48.467 50.8139V38.4979Z" fill="black"/>
</svg>
