<svg width="100" height="100" viewBox="0 0 100 100" fill="none" xmlns="http://www.w3.org/2000/svg">
<path d="M72 44.55C72.6 45.15 73.5 45.15 74.1 44.55L81.1 37.55C81.7 36.95 81.7 36.05 81.1 35.45L74.1 28.45C73.5 27.85 72.6 27.85 72 28.45C71.4 29.05 71.4 29.95 72 30.55L76.5 35.05C76.4 35.05 76.3 35.05 76.3 35.05H64.2C58 35.05 52.4 38.35 49.4 43.75L47.9 46.45L46.4 43.65C43.4 38.25 37.8 34.95 31.6 34.95H19.5C18.7 34.95 18 35.65 18 36.45C18 37.25 18.7 37.95 19.5 37.95H31.6C36.7 37.95 41.3 40.65 43.8 45.15L46.2 49.55L43.8 53.95C41.3 58.35 36.7 61.15 31.6 61.15H19.5C18.7 61.15 18 61.85 18 62.65C18 63.45 18.7 64.15 19.5 64.15H31.6C37.8 64.15 43.4 60.85 46.4 55.45L47.9 52.75L49.4 55.45C52.4 60.85 58 64.15 64.2 64.15H76.2L71.7 68.65C71.1 69.25 71.1 70.15 71.7 70.75C72.3 71.35 73.2 71.35 73.8 70.75L80.8 63.75C81.4 63.15 81.4 62.25 80.8 61.65L73.8 54.65C73.2 54.05 72.3 54.05 71.7 54.65C71.1 55.25 71.1 56.15 71.7 56.75L76.2 61.25H64.2C59.1 61.25 54.5 58.55 52 54.05L49.6 49.65L52 45.25C54.5 40.85 59.1 38.05 64.2 38.05H76.3C76.4 38.05 76.4 38.05 76.5 38.05L72 42.35C71.4 42.95 71.4 43.95 72 44.55ZM77.8 36.15L78 36.35L77.8 36.65C77.8 36.55 77.8 36.55 77.8 36.45C77.8 36.35 77.8 36.25 77.8 36.15Z" fill="black"/>
</svg>
